<?xml version="1.0" standalone="no"?>
<!DOCTYPE svg PUBLIC "-//W3C//DTD SVG 20010904//EN"
 "http://www.w3.org/TR/2001/REC-SVG-20010904/DTD/svg10.dtd">
<svg version="1.0" xmlns="http://www.w3.org/2000/svg"
 width="16.000000pt" height="16.000000pt" viewBox="0 0 16.000000 16.000000"
 preserveAspectRatio="xMidYMid meet">

<g transform="translate(0.000000,16.000000) scale(0.100000,-0.100000)"
fill="#000000" stroke="none">
<path d="M29 131 c-32 -32 -35 -47 -18 -85 16 -35 61 -52 98 -37 28 12 51 47
51 77 0 23 -55 74 -80 74 -12 0 -35 -13 -51 -29z m101 -51 c0 -11 -6 -23 -12
-25 -20 -7 -68 -14 -68 -10 0 19 17 35 36 35 13 0 24 5 24 10 0 6 5 10 10 10
6 0 10 -9 10 -20z"/>
</g>
</svg>
